<?xml version="1.0" encoding="UTF-8"?>
<svg height="128px" viewBox="0 0 128 128" width="128px" xmlns="http://www.w3.org/2000/svg" xmlns:xlink="http://www.w3.org/1999/xlink">
    <filter id="a" height="100%" width="100%" x="0%" y="0%">
        <feColorMatrix in="SourceGraphic" type="matrix" values="0 0 0 0 1 0 0 0 0 1 0 0 0 0 1 0 0 0 1 0"/>
    </filter>
    <mask id="b">
        <g filter="url(#a)">
            <rect fill-opacity="0.1" height="128" width="128"/>
        </g>
    </mask>
    <clipPath id="c">
        <rect height="128" width="128"/>
    </clipPath>
    <linearGradient id="d" gradientTransform="matrix(-0.873887 0 0 -0.873888 122.862378 395.837443)" gradientUnits="userSpaceOnUse" x1="36.244473" x2="111.057617" y1="406.921539" y2="360.416016">
        <stop offset="0" stop-color="#6b97df"/>
        <stop offset="1" stop-color="#c25298"/>
    </linearGradient>
    <linearGradient id="e" gradientTransform="matrix(-0.873887 0 0 -0.873888 122.862368 395.837443)" gradientUnits="userSpaceOnUse" x1="40.418491" x2="111.506866" y1="389.155334" y2="419.970673">
        <stop offset="0" stop-color="#6b97df" stop-opacity="0"/>
        <stop offset="1" stop-color="#e5565c"/>
    </linearGradient>
    <mask id="f">
        <g filter="url(#a)">
            <rect fill-opacity="0.12" height="128" width="128"/>
        </g>
    </mask>
    <clipPath id="g">
        <rect height="128" width="128"/>
    </clipPath>
    <linearGradient id="h" gradientTransform="matrix(0.45451 0 0 0.455522 -1210.292358 616.172546)" gradientUnits="userSpaceOnUse" x1="2689.251953" x2="2918.069824" y1="-1106.802979" y2="-1106.802979">
        <stop offset="0" stop-color="#62a0ea"/>
        <stop offset="0.0576991" stop-color="#afd4ff"/>
        <stop offset="0.122204" stop-color="#62a0ea"/>
        <stop offset="0.873306" stop-color="#62a0ea"/>
        <stop offset="0.955997" stop-color="#c0d5ea"/>
        <stop offset="1" stop-color="#62a0ea"/>
    </linearGradient>
    <linearGradient id="i" gradientUnits="userSpaceOnUse">
        <stop offset="0" stop-color="#fc9a91"/>
        <stop offset="1" stop-color="#cb2b31"/>
    </linearGradient>
    <linearGradient id="j" gradientTransform="matrix(0.6 0.6 -0.707107 0.707107 126.474213 283.740125)" x1="-253.630356" x2="-230.060135" xlink:href="#i" y1="-56.517502" y2="-56.517502"/>
    <linearGradient id="k" gradientTransform="matrix(0.6 0.6 -0.707107 0.707107 127.888428 282.32591)" x1="-253.630356" x2="-230.060135" xlink:href="#i" y1="-56.517502" y2="-56.517502"/>
    <linearGradient id="l" gradientTransform="matrix(-0.130102 0.390307 -0.390307 0.130102 63.147873 -14.964383)" gradientUnits="userSpaceOnUse" x1="181.677414" x2="143.24614" y1="-139.479385" y2="-101.048103">
        <stop offset="0" stop-color="#d0bb8e"/>
        <stop offset="1" stop-color="#ffffff"/>
    </linearGradient>
    <linearGradient id="m" gradientTransform="matrix(0.6 0.6 -0.707107 0.707107 127.888412 282.32591)" gradientUnits="userSpaceOnUse" x1="-230.060135" x2="-253.630356" y1="-64.517509" y2="-64.517509">
        <stop offset="0" stop-color="#c0bfbc"/>
        <stop offset="0.223152" stop-color="#9a9996"/>
        <stop offset="0.743841" stop-color="#d6d5d2"/>
        <stop offset="1" stop-color="#f6f5f4"/>
    </linearGradient>
    <path d="m 21.976562 12 c -5.527343 0 -9.976562 4.460938 -9.976562 10 v 84 c 0 5.539062 4.449219 10 9.976562 10 h 84.042969 c 5.53125 0 9.980469 -4.460938 9.980469 -10 v -72 c 0 -6.628906 -5.359375 -12 -11.972656 -12 h -46.027344 c -2.480469 0 -4.78125 -1.304688 -6.0625 -3.433594 l -0.847656 -1.414062 c -1.917969 -3.195313 -5.367188 -5.152344 -9.089844 -5.152344 z m 0 0" fill="#438de6"/>
    <path d="m 116 57.734375 c 0 28.71875 -23.28125 52 -52 52 s -52 -23.28125 -52 -52 s 23.28125 -52 52 -52 s 52 23.28125 52 52 z m 0 0" fill="#d5d3cf"/>
    <path d="m 116 56.003906 c 0 28.71875 -23.28125 52 -52 52 s -52 -23.28125 -52 -52 s 23.28125 -52 52 -52 s 52 23.28125 52 52 z m 0 0" fill="#f6f5f4"/>
    <g clip-path="url(#c)" mask="url(#b)">
        <path d="m 64 9.679688 c -26.0625 0 -47.191406 21.128906 -47.191406 47.191406 c 0.007812 0.339844 0.023437 0.679687 0.039062 1.023437 c 0.394532 -25.765625 21.382813 -46.449219 47.152344 -46.46875 c 25.652344 0.015625 46.597656 20.519531 47.152344 46.167969 c 0.015625 -0.242188 0.027344 -0.484375 0.039062 -0.722656 c 0 -26.0625 -21.128906 -47.191406 -47.191406 -47.191406 z m 0 0"/>
    </g>
    <path d="m 16.808594 56.003906 c 0 -26.0625 21.128906 -47.191406 47.191406 -47.191406 s 47.191406 21.128906 47.191406 47.191406 s -21.128906 47.1875 -47.191406 47.1875 s -47.191406 -21.125 -47.191406 -47.1875 z m 0 0" fill="url(#d)"/>
    <path d="m 16.808594 56.003906 c 0 -26.0625 21.128906 -47.191406 47.191406 -47.191406 s 47.191406 21.128906 47.191406 47.191406 s -21.128906 47.1875 -47.191406 47.1875 s -47.191406 -21.125 -47.191406 -47.1875 z m 0 0" fill="url(#e)"/>
    <g clip-path="url(#g)" mask="url(#f)">
        <path d="m 64 8.8125 c -26.0625 0 -47.191406 21.128906 -47.191406 47.191406 c 0.007812 0.339844 0.023437 0.679688 0.039062 1.023438 c 0.394532 -25.765625 21.382813 -46.449219 47.152344 -46.46875 c 25.652344 0.015625 46.597656 20.519531 47.152344 46.167968 c 0.015625 -0.242187 0.027344 -0.484374 0.039062 -0.722656 c 0 -26.0625 -21.128906 -47.191406 -47.191406 -47.191406 z m 0 0"/>
    </g>
    <path d="m 45.996094 24 h 48.007812 c 1.101563 0 1.996094 0.894531 1.996094 2 s -0.894531 2 -1.996094 2 h -48.007812 c -1.101563 0 -1.996094 -0.894531 -1.996094 -2 s 0.894531 -2 1.996094 -2 z m 0 0" fill="#ffffff"/>
    <path d="m 45.996094 16 h 32.007812 c 1.101563 0 1.996094 0.894531 1.996094 2 s -0.894531 2 -1.996094 2 h -32.007812 c -1.101563 0 -1.996094 -0.894531 -1.996094 -2 s 0.894531 -2 1.996094 -2 z m 0 0" fill="#ffffff"/>
    <path d="m 65.976562 36 c -2.746093 0 -5.226562 1.101562 -7.027343 2.890625 c -2.273438 2.253906 -5.386719 5.109375 -8.632813 5.109375 h -28.339844 c -5.527343 0 -9.976562 4.460938 -9.976562 10 v 52 c 0 5.539062 4.449219 10 9.976562 10 h 84.042969 c 5.53125 0 9.980469 -4.460938 9.980469 -10 v -60 c 0 -5.539062 -4.449219 -10 -9.980469 -10 z m 0 0" fill="url(#h)"/>
    <path d="m 65.976562 32 c -2.746093 0 -5.226562 1.101562 -7.027343 2.890625 c -2.273438 2.253906 -5.386719 5.109375 -8.632813 5.109375 h -28.339844 c -5.527343 0 -9.976562 4.460938 -9.976562 10 v 52 c 0 5.539062 4.449219 10 9.976562 10 h 84.042969 c 5.53125 0 9.980469 -4.460938 9.980469 -10 v -60 c 0 -5.539062 -4.449219 -10 -9.980469 -10 z m 0 0" fill="#a4caee"/>
    <path d="m 42 48 c -1.109375 0 -2 0.890625 -2 2 v 52 c 0 1.109375 0.890625 2 2 2 h 44 c 1.109375 0 2 -0.890625 2 -2 v -52 c 0 -1.109375 -0.890625 -2 -2 -2 z m 1 3 h 5 c 0.554688 0 1 0.445312 1 1 v 3 c 0 0.554688 -0.445312 1 -1 1 h -5 c -0.554688 0 -1 -0.445312 -1 -1 v -3 c 0 -0.554688 0.445312 -1 1 -1 z m 9 0 h 24 c 0.554688 0 1 0.445312 1 1 v 21 c 0 0.554688 -0.445312 1 -1 1 h -24 c -0.554688 0 -1 -0.445312 -1 -1 v -21 c 0 -0.554688 0.445312 -1 1 -1 z m 28 0 h 5 c 0.554688 0 1 0.445312 1 1 v 3 c 0 0.554688 -0.445312 1 -1 1 h -5 c -0.554688 0 -1 -0.445312 -1 -1 v -3 c 0 -0.554688 0.445312 -1 1 -1 z m -37 9 h 5 c 0.554688 0 1 0.445312 1 1 v 3 c 0 0.554688 -0.445312 1 -1 1 h -5 c -0.554688 0 -1 -0.445312 -1 -1 v -3 c 0 -0.554688 0.445312 -1 1 -1 z m 37 0 h 5 c 0.554688 0 1 0.445312 1 1 v 3 c 0 0.554688 -0.445312 1 -1 1 h -5 c -0.554688 0 -1 -0.445312 -1 -1 v -3 c 0 -0.554688 0.445312 -1 1 -1 z m -37 9 h 5 c 0.554688 0 1 0.445312 1 1 v 3 c 0 0.554688 -0.445312 1 -1 1 h -5 c -0.554688 0 -1 -0.445312 -1 -1 v -3 c 0 -0.554688 0.445312 -1 1 -1 z m 37 0 h 5 c 0.554688 0 1 0.445312 1 1 v 3 c 0 0.554688 -0.445312 1 -1 1 h -5 c -0.554688 0 -1 -0.445312 -1 -1 v -3 c 0 -0.554688 0.445312 -1 1 -1 z m -37 9 h 5 c 0.554688 0 1 0.445312 1 1 v 3 c 0 0.554688 -0.445312 1 -1 1 h -5 c -0.554688 0 -1 -0.445312 -1 -1 v -3 c 0 -0.554688 0.445312 -1 1 -1 z m 9 0 h 24 c 0.554688 0 1 0.445312 1 1 v 21 c 0 0.554688 -0.445312 1 -1 1 h -24 c -0.554688 0 -1 -0.445312 -1 -1 v -21 c 0 -0.554688 0.445312 -1 1 -1 z m 28 0 h 5 c 0.554688 0 1 0.445312 1 1 v 3 c 0 0.554688 -0.445312 1 -1 1 h -5 c -0.554688 0 -1 -0.445312 -1 -1 v -3 c 0 -0.554688 0.445312 -1 1 -1 z m -37 9 h 5 c 0.554688 0 1 0.445312 1 1 v 3 c 0 0.554688 -0.445312 1 -1 1 h -5 c -0.554688 0 -1 -0.445312 -1 -1 v -3 c 0 -0.554688 0.445312 -1 1 -1 z m 37 0 h 5 c 0.554688 0 1 0.445312 1 1 v 3 c 0 0.554688 -0.445312 1 -1 1 h -5 c -0.554688 0 -1 -0.445312 -1 -1 v -3 c 0 -0.554688 0.445312 -1 1 -1 z m -37 9 h 5 c 0.554688 0 1 0.445312 1 1 v 3 c 0 0.554688 -0.445312 1 -1 1 h -5 c -0.554688 0 -1 -0.445312 -1 -1 v -3 c 0 -0.554688 0.445312 -1 1 -1 z m 37 0 h 5 c 0.554688 0 1 0.445312 1 1 v 3 c 0 0.554688 -0.445312 1 -1 1 h -5 c -0.554688 0 -1 -0.445312 -1 -1 v -3 c 0 -0.554688 0.445312 -1 1 -1 z m 0 0" fill="#438de6"/>
    <path d="m 78.34375 30.34375 l 11.3125 11.3125 l -59.597656 59.597656 l -11.3125 -11.3125 z m 0 0" fill="#ff881e"/>
    <path d="m 86.878906 38.777344 l 4.242188 4.242187 l -59.597656 59.597657 l -4.242188 -4.242188 z m 0 0" fill="#e66100"/>
    <path d="m 81.222656 33.121094 l -4.242187 -4.242188 l -59.597657 59.597656 l 4.242188 4.242188 z m 0 0" fill="#ffb367"/>
    <path d="m 21.332031 84.527344 l 14.140625 14.140625 l -5.65625 5.65625 l -14.140625 -14.140625 z m 0 0" fill="url(#j)"/>
    <path d="m 29.816406 104.324219 c -3.90625 3.90625 -10.238281 3.90625 -14.140625 0 c -3.90625 -3.902344 -3.90625 -10.234375 0 -14.140625 c 3.902344 -3.90625 10.234375 -3.90625 14.140625 0 s 3.90625 10.238281 0 14.140625 z m 0 0" fill="url(#k)"/>
    <path d="m 94 26 l -2.929688 17.070312 l -14.140624 -14.140624 z m 0 0" fill="url(#l)"/>
    <path d="m 94 26 l -1.273438 7.414062 l -6.140624 -6.140624 z m 0 0" fill="#3d3846"/>
    <path d="m 24.160156 81.699219 l 14.140625 14.140625 l -5.65625 5.65625 l -14.140625 -14.140625 z m 0 0" fill="url(#m)"/>
</svg>
